<svg width="20" height="20" viewBox="0 0 20 20" fill="none" xmlns="http://www.w3.org/2000/svg">
<path id="Vector" d="M9 12H7C7 9.61305 7.94821 7.32387 9.63604 5.63604C11.3239 3.94821 13.6131 3 16 3V5C12.13 5 9 8.13 9 12ZM16 9V7C13.24 7 11 9.24 11 12H13C13 10.34 14.34 9 16 9ZM5 2C5 0.89 4.11 0 3 0C1.89 0 1 0.89 1 2C1 3.11 1.89 4 3 4C4.11 4 5 3.11 5 2ZM9.45 2.5H7.45C7.33547 3.19925 6.9757 3.83486 6.43514 4.29296C5.89458 4.75106 5.20856 5.00171 4.5 5H1.5C0.67 5 0 5.67 0 6.5V9H6V6.74C6.92574 6.44644 7.74549 5.88871 8.35843 5.13541C8.97138 4.38211 9.35079 3.46609 9.45 2.5ZM17 15C18.11 15 19 14.11 19 13C19 11.89 18.11 11 17 11C15.89 11 15 11.89 15 13C15 14.11 15.89 15 17 15ZM18.5 16H15.5C14 16 12.79 14.92 12.55 13.5H10.55C10.75 15.5 12.14 17.15 14 17.74V20H20V17.5C20 16.67 19.33 16 18.5 16Z" fill="#272727"/>
</svg>
