<svg width="37" height="32" viewBox="0 0 37 32" fill="none" xmlns="http://www.w3.org/2000/svg">
<path d="M33.1429 16H3.42857C2.51926 16 1.64719 16.3612 1.00421 17.0042C0.361223 17.6472 0 18.5193 0 19.4286C0 20.3379 0.361223 21.21 1.00421 21.8529C1.64719 22.4959 2.51926 22.8571 3.42857 22.8571H33.1429C34.0522 22.8571 34.9242 22.4959 35.5672 21.8529C36.2102 21.21 36.5714 20.3379 36.5714 19.4286C36.5714 18.5193 36.2102 17.6472 35.5672 17.0042C34.9242 16.3612 34.0522 16 33.1429 16ZM34.2857 25.1429H2.28571C1.98261 25.1429 1.69192 25.2633 1.47759 25.4776C1.26326 25.6919 1.14286 25.9826 1.14286 26.2857V27.4286C1.14286 28.641 1.62449 29.8038 2.4818 30.6611C3.33911 31.5184 4.50187 32 5.71429 32H30.8571C32.0696 32 33.2323 31.5184 34.0896 30.6611C34.9469 29.8038 35.4286 28.641 35.4286 27.4286V26.2857C35.4286 25.9826 35.3082 25.6919 35.0938 25.4776C34.8795 25.2633 34.5888 25.1429 34.2857 25.1429ZM4.18857 13.7143H32.3829C34.8521 13.7143 36.2843 10.5786 34.87 8.29429C32 3.65714 25.6821 0.00714286 18.2857 0C10.89 0.00714286 4.57143 3.65714 1.70143 8.29357C0.285714 10.5779 1.71929 13.7143 4.18857 13.7143ZM27.4286 5.71429C27.6546 5.71429 27.8756 5.78131 28.0635 5.90689C28.2515 6.03247 28.3979 6.21096 28.4844 6.41979C28.5709 6.62862 28.5936 6.85841 28.5495 7.0801C28.5054 7.3018 28.3965 7.50543 28.2367 7.66527C28.0769 7.8251 27.8732 7.93394 27.6515 7.97804C27.4298 8.02214 27.2001 7.99951 26.9912 7.91301C26.7824 7.82651 26.6039 7.68002 26.4783 7.49208C26.3527 7.30414 26.2857 7.08318 26.2857 6.85714C26.2857 6.55404 26.4061 6.26335 26.6204 6.04902C26.8348 5.83469 27.1255 5.71429 27.4286 5.71429ZM18.2857 3.42857C18.5118 3.42857 18.7327 3.4956 18.9207 3.62118C19.1086 3.74676 19.2551 3.92525 19.3416 4.13408C19.4281 4.34291 19.4507 4.5727 19.4066 4.79439C19.3625 5.01608 19.2537 5.21972 19.0938 5.37955C18.934 5.53938 18.7304 5.64823 18.5087 5.69233C18.287 5.73642 18.0572 5.71379 17.8484 5.62729C17.6395 5.54079 17.461 5.39431 17.3355 5.20637C17.2099 5.01842 17.1429 4.79746 17.1429 4.57143C17.1429 4.26832 17.2633 3.97763 17.4776 3.76331C17.6919 3.54898 17.9826 3.42857 18.2857 3.42857ZM9.14286 5.71429C9.36889 5.71429 9.58985 5.78131 9.7778 5.90689C9.96574 6.03247 10.1122 6.21096 10.1987 6.41979C10.2852 6.62862 10.3079 6.85841 10.2638 7.0801C10.2197 7.3018 10.1108 7.50543 9.95098 7.66527C9.79115 7.8251 9.58751 7.93394 9.36582 7.97804C9.14413 8.02214 8.91434 7.99951 8.70551 7.91301C8.49668 7.82651 8.31819 7.68002 8.19261 7.49208C8.06703 7.30414 8 7.08318 8 6.85714C8 6.55404 8.12041 6.26335 8.33474 6.04902C8.54906 5.83469 8.83975 5.71429 9.14286 5.71429Z" fill="#272727"/>
</svg>
