<svg width="24" height="32" viewBox="0 0 24 32" fill="none" xmlns="http://www.w3.org/2000/svg">
<path d="M12.0515 32.0001L2.79317 29.4299L0.72998 6.28882H23.4009L21.3355 29.4263L12.0515 32.0001Z" fill="#264DE4"/>
<path d="M19.5673 27.9529L21.3323 8.18091H12.0654V30.0327L19.5673 27.9529Z" fill="#2965F1"/>
<path d="M5.45996 16.7637L5.71434 19.6018H12.0656V16.7637H5.45996Z" fill="#EBEBEB"/>
<path d="M4.94873 11.019L5.20673 13.8572H12.0655V11.019H4.94873Z" fill="#EBEBEB"/>
<path d="M12.0653 24.1345L12.0528 24.1378L8.89195 23.2843L8.68988 21.0208H5.84082L6.23845 25.4771L12.0522 27.091L12.0653 27.0874V24.1345Z" fill="#EBEBEB"/>
<path d="M6.06543 0H9.50293V1.4375H7.50293V2.875H9.50293V4.3125H6.06543V0Z" fill="black"/>
<path d="M10.1904 0H13.6279V1.25H11.6279V1.5H13.6279V4.375H10.1904V3.0625H12.1904V2.8125H10.1904V0Z" fill="black"/>
<path d="M14.3154 0H17.7529V1.25H15.7529V1.5H17.7529V4.375H14.3154V3.0625H16.3154V2.8125H14.3154V0Z" fill="black"/>
<path d="M18.6529 16.7635L19.1653 11.019H12.0557V13.8572H16.0549L15.7967 16.7635H12.0557V19.6017H15.5505L15.2211 23.2825L12.0557 24.1369V27.0897L17.874 25.4771L17.9167 24.9976L18.5837 17.5257L18.6529 16.7635Z" fill="white"/>
</svg>
