<svg width="23" height="32" viewBox="0 0 23 32" fill="none" xmlns="http://www.w3.org/2000/svg">
<path d="M22.73 6.28882L20.6646 29.4263L11.3806 32.0001L2.12227 29.4299L0.059082 6.28882H22.73Z" fill="#E44D26"/>
<path d="M11.3945 30.0327L18.8964 27.9529L20.6614 8.18091H11.3945V30.0327Z" fill="#F16529"/>
<path d="M7.37958 13.8572H11.3946V11.019H4.27783L4.34577 11.7805L5.04333 19.6017H11.3946V16.7635H7.63896L7.37958 13.8572Z" fill="#EBEBEB"/>
<path d="M8.01898 21.0208H5.16992L5.56755 25.4771L11.3813 27.091L11.3944 27.0874V24.1345L11.3819 24.1378L8.22105 23.2843L8.01898 21.0208Z" fill="#EBEBEB"/>
<path d="M2.16846 0H3.61077V1.425H4.93014V0H6.37252V4.31525H4.93021V2.87025H3.61083V4.31525H2.16852L2.16846 0Z" fill="black"/>
<path d="M8.26926 1.431H6.99951V0H10.982V1.431H9.7117V4.31525H8.26932L8.26926 1.431Z" fill="black"/>
<path d="M11.6138 0H13.1177L14.0428 1.51625L14.967 0H16.4715V4.31525H15.0351V2.17637L14.0428 3.71069H14.018L13.025 2.17637V4.31525H11.6138V0Z" fill="black"/>
<path d="M17.1895 0H18.6322V2.88888H20.6605V4.31525H17.1895V0Z" fill="black"/>
<path d="M11.3848 19.6018H14.8796L14.5502 23.2827L11.3848 24.137V27.0898L17.2031 25.4772L17.2458 24.9977L17.9128 17.5258L17.982 16.7637H11.3848V19.6018Z" fill="white"/>
<path d="M11.3848 13.8503V13.8572H18.2403L18.2972 13.2193L18.4265 11.7805L18.4944 11.019H11.3848V13.8503Z" fill="white"/>
</svg>
