<svg width="33" height="32" viewBox="0 0 33 32" fill="none" xmlns="http://www.w3.org/2000/svg">
<path d="M0.400879 0H32.4009V32H0.400879V0Z" fill="#F7DF1E"/>
<path d="M8.81499 26.7416L11.2639 25.2596C11.7363 26.0972 12.1661 26.806 13.1969 26.806C14.185 26.806 14.808 26.4194 14.808 24.9159V14.6912H17.8152V24.9584C17.8152 28.0731 15.9895 29.4908 13.3258 29.4908C10.9202 29.4908 9.52377 28.2449 8.81494 26.7413" fill="black"/>
<path d="M19.4487 26.4192L21.8973 25.0015C22.5419 26.0541 23.3796 26.8274 24.8617 26.8274C26.1077 26.8274 26.9022 26.2044 26.9022 25.3452C26.9022 24.3141 26.086 23.9489 24.7113 23.3476L23.9597 23.0252C21.79 22.1017 20.3508 20.9418 20.3508 18.493C20.3508 16.2375 22.0692 14.519 24.7543 14.519C26.6661 14.519 28.0408 15.185 29.0288 16.9249L26.6874 18.4285C26.1719 17.5049 25.6136 17.1398 24.7544 17.1398C23.8737 17.1398 23.3151 17.6983 23.3151 18.4285C23.3151 19.3307 23.8737 19.6959 25.1624 20.2545L25.9141 20.5766C28.4703 21.6722 29.9095 22.7891 29.9095 25.3022C29.9095 28.0089 27.783 29.4909 24.9262 29.4909C22.1337 29.4909 20.3293 28.1592 19.4487 26.4192Z" fill="black"/>
</svg>
