<svg width="159" height="32" viewBox="0 0 159 32" fill="none" xmlns="http://www.w3.org/2000/svg">
<path d="M133.163 0.0133234V5.11629H122.196V31.9623H116.712V5.11629H105.516V0.0133234H133.163ZM134.396 28.9186C134.782 28.9186 135.12 29.0578 135.406 29.336C135.696 29.6143 135.841 29.9475 135.845 30.3356C135.841 30.5992 135.774 30.8408 135.64 31.0568C135.503 31.2765 135.329 31.4486 135.109 31.5731C134.894 31.7013 134.656 31.7671 134.396 31.7671C133.994 31.7671 133.653 31.628 133.367 31.3498C133.081 31.0715 132.939 30.7347 132.943 30.3356C132.939 29.9475 133.081 29.6143 133.367 29.336C133.653 29.0578 133.994 28.9186 134.396 28.9186ZM25.705 31.9623L5.48373 6.82907V31.949H0V0H6.85466L32.4014 31.723L32.4018 5.11629L32.3995 0.0133234H60.0467V5.11629H37.8855V13.3254H55.7075V18.4283H37.8855V26.8593H60.0467V31.9623H25.705ZM77.6221 18.3795L81.216 22.848L73.8518 32H66.6547L77.6221 18.3795ZM73.8518 0.0266484L83.1304 11.5498L92.38 0.0621141L99.5569 0.0510235L86.7235 16.0121L99.5775 31.9756H92.38L66.6753 0.0266484H73.8518ZM143.756 18.308H146.186V27.6701C146.182 28.5305 145.996 29.2665 145.632 29.8852C145.264 30.504 144.755 30.9763 144.101 31.3095C143.451 31.639 142.689 31.8074 141.823 31.8074C141.032 31.8074 140.322 31.6646 139.691 31.3864C139.059 31.1081 138.558 30.6907 138.19 30.1415C137.818 29.5923 137.636 28.9076 137.636 28.0875H140.07C140.073 28.4463 140.155 28.7575 140.311 29.0174C140.467 29.2774 140.683 29.4751 140.958 29.6142C141.236 29.7534 141.556 29.823 141.916 29.823C142.307 29.823 142.641 29.7424 142.912 29.5776C143.183 29.4165 143.391 29.1749 143.536 28.8527C143.677 28.5342 143.752 28.1387 143.756 27.6701V18.308ZM156.184 21.9693C156.125 21.4018 155.865 20.9588 155.411 20.6439C154.954 20.3254 154.364 20.168 153.639 20.168C153.13 20.168 152.692 20.2449 152.328 20.395C151.963 20.5487 151.681 20.7538 151.488 21.0137C151.295 21.2737 151.198 21.5703 151.19 21.9035C151.19 22.1817 151.257 22.4234 151.387 22.6247C151.517 22.8298 151.692 23.0019 151.919 23.141C152.141 23.2838 152.39 23.4009 152.662 23.4961C152.937 23.5913 153.212 23.6719 153.487 23.7378L154.754 24.049C155.263 24.1662 155.757 24.3236 156.229 24.525C156.701 24.7227 157.128 24.9753 157.503 25.2792C157.879 25.5831 158.176 25.9492 158.395 26.3776C158.614 26.806 158.726 27.3076 158.726 27.8861C158.726 28.666 158.525 29.3506 158.12 29.9438C157.715 30.5332 157.132 30.9946 156.366 31.3278C155.604 31.6573 154.683 31.8257 153.598 31.8257C152.55 31.8257 151.636 31.6647 150.867 31.3425C150.095 31.0239 149.492 30.5552 149.058 29.9401C148.623 29.325 148.389 28.5744 148.355 27.692H150.763C150.797 28.1534 150.945 28.5378 151.198 28.8491C151.454 29.1566 151.789 29.3836 152.197 29.5374C152.61 29.6875 153.07 29.7644 153.58 29.7644C154.111 29.7644 154.579 29.6838 154.984 29.5264C155.385 29.3689 155.701 29.1493 155.928 28.8637C156.158 28.5818 156.274 28.2486 156.277 27.8678C156.274 27.52 156.169 27.2307 155.969 27.0037C155.764 26.7767 155.482 26.5863 155.121 26.4326C154.758 26.2788 154.334 26.1396 153.851 26.0188L152.313 25.6307C151.202 25.3488 150.321 24.9204 149.678 24.3456C149.032 23.7708 148.712 23.0092 148.712 22.0536C148.712 21.2701 148.927 20.5817 149.363 19.9922C149.793 19.4028 150.384 18.9451 151.131 18.6192C151.882 18.2897 152.729 18.1286 153.672 18.1286C154.631 18.1286 155.471 18.2897 156.195 18.6192C156.92 18.9451 157.489 19.3991 157.901 19.9776C158.313 20.5561 158.529 21.2188 158.54 21.9693H156.184Z" fill="black"/>
</svg>
