<svg width="55" height="32" viewBox="0 0 55 32" fill="none" xmlns="http://www.w3.org/2000/svg">
<path d="M27.3923 0C20.2811 0 15.8367 3.55556 14.0589 10.6667C16.7256 7.11111 19.8367 5.77778 23.3923 6.66667C25.4209 7.17383 26.8709 8.64553 28.4758 10.2747C31.0903 12.9285 34.1163 16 40.7256 16C47.8367 16 52.2811 12.4444 54.0589 5.33333C51.3923 8.88889 48.2811 10.2222 44.7256 9.33333C42.6969 8.82617 41.247 7.35447 39.642 5.72533C37.0275 3.07151 34.0015 0 27.3923 0ZM14.0589 16C6.94781 16 2.50336 19.5556 0.725586 26.6667C3.39225 23.1111 6.50336 21.7778 10.0589 22.6667C12.0876 23.1738 13.5375 24.6455 15.1425 26.2747C17.757 28.9285 20.783 32 27.3923 32C34.5034 32 38.9478 28.4444 40.7256 21.3333C38.0589 24.8889 34.9478 26.2222 31.3923 25.3333C29.3636 24.8262 27.9136 23.3545 26.3087 21.7253C23.6942 19.0715 20.6682 16 14.0589 16Z" fill="url(#paint0_linear_21_175)"/>
<defs>
<linearGradient id="paint0_linear_21_175" x1="-147.423" y1="1024" x2="4458.78" y2="3679.83" gradientUnits="userSpaceOnUse">
<stop stop-color="#2298BD"/>
<stop offset="1" stop-color="#0ED7B5"/>
</linearGradient>
</defs>
</svg>
